<svg width="101" height="100" viewBox="0 0 101 100" fill="none" xmlns="http://www.w3.org/2000/svg">
<path fill-rule="evenodd" clip-rule="evenodd" d="M77.1422 13.3333H24.1493C18.5188 13.3333 14.2131 17.6666 14.2131 23.3333V76.6666C14.2131 82.3333 18.5188 86.6666 24.1493 86.6666H77.1422C82.7727 86.6666 87.0784 82.3333 87.0784 76.6666V23.3333C87.0784 17.6666 82.7727 13.3333 77.1422 13.3333ZM37.3975 80H24.1493C22.1621 80 20.8372 78.6666 20.8372 76.6666V40H37.3975V80ZM80.4543 76.6666C80.4543 78.6666 79.1294 80 77.1422 80H44.0216V40H80.4543V76.6666ZM80.4543 33.3333H20.8372V23.3333C20.8372 21.3333 22.1621 20 24.1493 20H77.1422C79.1294 20 80.4543 21.3333 80.4543 23.3333V33.3333Z" fill="black"/>
</svg>
