<svg width="101" height="100" viewBox="0 0 101 100" fill="none" xmlns="http://www.w3.org/2000/svg">
<path fill-rule="evenodd" clip-rule="evenodd" d="M60.518 20C47.601 20 36.6712 28.3333 32.3655 40H30.7095C19.7797 40 10.8372 49 10.8372 60C10.8372 71 19.7797 80 30.7095 80H60.518C77.0783 80 90.3265 66.6667 90.3265 50C90.3265 33.3333 77.0783 20 60.518 20ZM60.518 73.3333H30.7095C23.423 73.3333 17.4613 67.3333 17.4613 60C17.4613 52.6667 23.423 46.6667 30.7095 46.6667H37.6648C39.3208 35.3333 48.9258 26.6667 60.518 26.6667C73.435 26.6667 83.7024 37 83.7024 50C83.7024 63 73.435 73.3333 60.518 73.3333Z" fill="black"/>
</svg>
