<svg width="900" height="450" xmlns="http://www.w3.org/2000/svg"><path fill="#10101a" d="M0 0h900v450H0z"/><path d="M0 39l15 2c15 2 45 6 75 10.2 30 4.1 60 8.5 90 6.8 30-1.7 60-9.3 90-10.2 30-.8 60 5.2 90 7.2s60 0 90-1.7c30-1.6 60-3 90-3.3 30-.3 60 .3 90 3s60 7.3 90 9.5 60 1.8 90-1.7 60-10.1 75-13.5l15-3.3V0H0z" fill="#919191"/><path d="M0 38l15-2.2c15-2.1 45-6.5 75-4.8 30 1.7 60 9.3 90 12.7 30 3.3 60 2.3 90 1.1 30-1.1 60-2.5 90-3s60-.1 90-2.3c30-2.2 60-6.8 90-7.3s60 3.1 90 4.6c30 1.5 60 .9 90-.8 30-1.7 60-4.3 90-4.7 30-.3 60 1.7 75 2.7l15 1V0H0z" fill="#c7c7c7"/><path d="M0 25l15-1.7c15-1.6 45-5 75-5.6 30-.7 60 1.3 90 3.8s60 5.5 90 6.7c30 1.1 60 .5 90 .3s60 .2 90-1.2c30-1.3 60-4.3 90-7 30-2.6 60-5 90-4.6 30 .3 60 3.3 90 4.3s60 0 90 1 60 4 75 5.5l15 1.5V0H0z" fill="#fff"/></svg>