<svg width="100" height="100" viewBox="0 0 100 100" fill="none" xmlns="http://www.w3.org/2000/svg">
<path fill-rule="evenodd" clip-rule="evenodd" d="M50.1138 36.6667C42.8273 36.6667 36.8656 42.6667 36.8656 50C36.8656 57.3333 42.8273 63.3333 50.1138 63.3333C57.4003 63.3333 63.362 57.3333 63.362 50C63.362 42.6667 57.4003 36.6667 50.1138 36.6667ZM50.1138 56.6667C46.4706 56.6667 43.4897 53.6667 43.4897 50C43.4897 46.3333 46.4706 43.3333 50.1138 43.3333C53.7571 43.3333 56.7379 46.3333 56.7379 50C56.7379 53.6667 53.7571 56.6667 50.1138 56.6667ZM79.9223 60C85.5528 60 89.8585 55.6667 89.8585 50C89.8585 44.3333 85.5528 40 79.9223 40H78.2663C77.9351 39 77.6039 38 76.9415 37L78.2663 35.6667C82.2408 31.6667 82.2408 25.3333 78.2663 21.6667C74.2918 17.6667 67.9989 17.6667 64.3557 21.6667L63.0308 23C62.0372 22.6667 61.0436 22 60.05 21.6667V20C60.05 14.3333 55.7443 10 50.1138 10C44.4833 10 40.1776 14.3333 40.1776 20V21.6667C39.184 22 38.1904 22.3333 37.1968 23L35.872 21.6667C31.8975 17.6667 25.6046 17.6667 21.9613 21.6667C17.9869 25.6667 17.9869 32 21.9613 35.6667L23.2862 37C22.955 38 22.2925 39 21.9613 40H20.3053C14.6748 40 10.3691 44.3333 10.3691 50C10.3691 55.6667 14.6748 60 20.3053 60H21.9613C22.2925 61 22.6238 62 23.2862 63L21.9613 64.3333C17.9869 68.3333 17.9869 74.6667 21.9613 78.3333C25.9358 82.3333 32.2287 82.3333 35.872 78.3333L37.1968 77C38.1904 77.3333 39.184 78 40.1776 78.3333V80C40.1776 85.6667 44.4833 90 50.1138 90C55.7443 90 60.05 85.6667 60.05 80V78.3333C61.0436 78 62.0372 77.6667 63.0308 77L64.3557 78.3333C68.3301 82.3333 74.623 82.3333 78.2663 78.3333C82.2408 74.3333 82.2408 68 78.2663 64.3333L76.9415 63C77.2727 62 77.9351 61 78.2663 60H79.9223V60ZM73.2982 68.6667C74.623 70 74.623 72.3333 73.2982 73.6667C71.9734 75 69.9862 75 68.6613 73.6667L64.0245 69C61.0436 71.3333 57.4003 73 53.4259 73.3333V80C53.4259 82 52.1011 83.3333 50.1138 83.3333C48.1266 83.3333 46.8018 82 46.8018 80V73C42.8273 72.3333 39.184 71 36.2032 68.6667L31.5663 73.3333C30.2415 74.6667 28.2542 74.6667 26.9294 73.3333C25.6046 72 25.6046 70 26.9294 68.6667L31.5663 64C29.2479 61 27.5918 57.3333 27.2606 53.3333H20.3053C18.3181 53.3333 16.9933 52 16.9933 50C16.9933 48 18.3181 46.6667 20.3053 46.6667H27.2606C27.923 42.6667 29.2479 39 31.5663 36L26.9294 31.3333C25.6046 30 25.6046 28 26.9294 26.6667C28.2542 25.3333 30.2415 25.3333 31.5663 26.6667L36.2032 31.3333C39.184 29 42.8273 27.3333 46.8018 27V20C46.8018 18 48.1266 16.6667 50.1138 16.6667C52.1011 16.6667 53.4259 18 53.4259 20V27C57.4003 27.6667 61.0436 29 64.0245 31.3333L68.6613 26.6667C69.9862 25.3333 71.9734 25.3333 73.2982 26.6667C74.623 28 74.623 30 73.2982 31.3333L68.6613 36C70.9798 39 72.6358 42.6667 72.967 46.6667H79.9223C81.9096 46.6667 83.2344 48 83.2344 50C83.2344 52 81.9096 53.3333 79.9223 53.3333H72.967C72.3046 57.3333 70.9798 61 68.6613 64L73.2982 68.6667Z" fill="black"/>
</svg>
