<svg width="100" height="100" viewBox="0 0 100 100" fill="none" xmlns="http://www.w3.org/2000/svg">
<path fill-rule="evenodd" clip-rule="evenodd" d="M66.7379 42.6666V36.6666C66.7379 31 62.4323 26.6666 56.8018 26.6666H20.3692C14.7387 26.6666 10.433 31 10.433 36.6666V63.3333C10.433 69 14.7387 73.3333 20.3692 73.3333H56.8018C62.4323 73.3333 66.7379 69 66.7379 63.3333V57.3333L89.9223 70V30L66.7379 42.6666ZM60.1138 63.3333C60.1138 65.3333 58.789 66.6666 56.8018 66.6666H20.3692C18.3819 66.6666 17.0571 65.3333 17.0571 63.3333V36.6666C17.0571 34.6666 18.3819 33.3333 20.3692 33.3333H56.8018C58.789 33.3333 60.1138 34.6666 60.1138 36.6666V63.3333ZM83.2982 58.6666L67.4004 50L83.2982 41.3333V58.6666Z" fill="black"/>
</svg>
