<svg width="38" height="38" fill="none" xmlns="http://www.w3.org/2000/svg"><path d="M16.667 29.333c2.81 0 5.54-.941 7.753-2.672l6.96 6.96 2.24-2.239-6.96-6.96a12.59 12.59 0 002.673-7.755C29.333 9.683 23.651 4 16.667 4S4 9.683 4 16.667s5.683 12.666 12.667 12.666zm0-22.166c5.239 0 9.5 4.26 9.5 9.5 0 5.239-4.261 9.5-9.5 9.5-5.24 0-9.5-4.261-9.5-9.5 0-5.24 4.26-9.5 9.5-9.5z" fill="#fff"/><path d="M18.069 13.595c.6.601.931 1.396.931 2.238h3.167a6.297 6.297 0 00-1.86-4.477c-2.396-2.394-6.553-2.394-8.948 0l2.236 2.242c1.203-1.2 3.277-1.197 4.474-.004z" fill="#fff"/></svg>