<svg width="201" height="78" viewBox="0 0 201 78" fill="none" xmlns="http://www.w3.org/2000/svg">
<g clip-path="url(#clip0_217_98)">
<path d="M38.7944 72.663L4.3992 38.3326V26.0208L38.7944 60.3512V21.8737H35.3471V34.8335L0.951904 0.477173V5.31116L35.3471 39.6675V52.0699L0.951904 17.7396V56.2041H4.3992V43.2443L38.7944 77.5229V72.663Z" fill="#F2F2F2"/>
</g>
<path d="M81.468 25.7052V52.1949H77.6838V40.3881H62.4711V52.1949H58.6868V25.7052H62.4711V37.0958H77.6838V25.7052H81.468ZM101.65 52.4977C98.9757 52.4977 96.5664 51.9174 94.422 50.7569C92.2776 49.5712 90.5873 47.944 89.3511 45.8753C88.1401 43.8065 87.5346 41.4981 87.5346 38.9501C87.5346 36.402 88.1401 34.0936 89.3511 32.0249C90.5873 29.9562 92.2776 28.3416 94.422 27.1811C96.5664 25.9953 98.9757 25.4025 101.65 25.4025C104.299 25.4025 106.696 25.9953 108.84 27.1811C110.984 28.3416 112.662 29.9562 113.873 32.0249C115.084 34.0684 115.689 36.3768 115.689 38.9501C115.689 41.5234 115.084 43.8444 113.873 45.9131C112.662 47.9566 110.984 49.5712 108.84 50.7569C106.696 51.9174 104.299 52.4977 101.65 52.4977ZM101.65 49.1297C103.592 49.1297 105.333 48.6882 106.872 47.8052C108.436 46.9222 109.66 45.7113 110.543 44.1723C111.451 42.6082 111.905 40.8674 111.905 38.9501C111.905 37.0327 111.451 35.3046 110.543 33.7657C109.66 32.2015 108.436 30.9779 106.872 30.0949C105.333 29.212 103.592 28.7705 101.65 28.7705C99.7073 28.7705 97.9413 29.212 96.3519 30.0949C94.7878 30.9779 93.5516 32.2015 92.6434 33.7657C91.7604 35.3046 91.3189 37.0327 91.3189 38.9501C91.3189 40.8674 91.7604 42.6082 92.6434 44.1723C93.5516 45.7113 94.7878 46.9222 96.3519 47.8052C97.9413 48.6882 99.7073 49.1297 101.65 49.1297ZM128.371 25.4025C130.894 25.4025 133.165 25.9953 135.183 27.1811C137.201 28.3416 138.791 29.9562 139.951 32.0249C141.112 34.0684 141.692 36.3768 141.692 38.9501C141.692 41.5234 141.112 43.8444 139.951 45.9131C138.791 47.9566 137.201 49.5712 135.183 50.7569C133.165 51.9174 130.894 52.4977 128.371 52.4977C126.202 52.4977 124.234 52.1445 122.468 51.4381C120.702 50.7317 119.226 49.6973 118.04 48.335L120.424 45.9509C122.417 48.0449 125.003 49.0919 128.182 49.0919C129.872 49.0919 131.411 48.7261 132.799 47.9944C134.187 47.2376 135.322 46.1906 136.205 44.8535C137.088 43.5164 137.618 41.9901 137.794 40.2746H124.966V37.1715H137.756C137.504 35.5316 136.936 34.081 136.053 32.8196C135.17 31.5582 134.048 30.5743 132.685 29.8679C131.323 29.1615 129.822 28.8083 128.182 28.8083C125.029 28.8083 122.443 29.8553 120.424 31.9492L118.04 29.5651C119.226 28.2028 120.702 27.1685 122.468 26.4621C124.259 25.7557 126.227 25.4025 128.371 25.4025ZM157.057 40.5395H151.532V52.1949H147.824V25.7052H151.532V37.2093H157.133L165.458 25.7052H169.507L160.047 38.5338L169.961 52.1949H165.647L157.057 40.5395ZM185.611 52.4977C182.962 52.4977 180.565 51.9174 178.421 50.7569C176.302 49.5712 174.637 47.9566 173.426 45.9131C172.215 43.8444 171.609 41.5234 171.609 38.9501C171.609 36.3768 172.215 34.0684 173.426 32.0249C174.637 29.9562 176.314 28.3416 178.459 27.1811C180.603 25.9953 183 25.4025 185.649 25.4025C187.718 25.4025 189.61 25.7557 191.325 26.4621C193.041 27.1432 194.504 28.165 195.715 29.5273L193.255 31.9114C191.262 29.8174 188.777 28.7705 185.8 28.7705C183.832 28.7705 182.054 29.212 180.464 30.0949C178.875 30.9779 177.626 32.2015 176.718 33.7657C175.835 35.3046 175.394 37.0327 175.394 38.9501C175.394 40.8674 175.835 42.6082 176.718 44.1723C177.626 45.7113 178.875 46.9222 180.464 47.8052C182.054 48.6882 183.832 49.1297 185.8 49.1297C188.752 49.1297 191.237 48.0701 193.255 45.9509L195.715 48.335C194.504 49.6973 193.028 50.7317 191.287 51.4381C189.572 52.1445 187.68 52.4977 185.611 52.4977Z" fill="#F2F2F2"/>
<defs>
<clipPath id="clip0_217_98">
<rect width="37.8425" height="77.0457" fill="white" transform="translate(0.951904 0.477173)"/>
</clipPath>
</defs>
</svg>
