<svg xmlns="http://www.w3.org/2000/svg" viewBox="0 0 1080.000000 1080.000000">
    <g fill="#a46bff" xmlns="http://www.w3.org/2000/svg" transform="translate(0.000000,1080.000000) scale(0.100000,-0.100000)">
    <path d="M4480 9776 c-44 -33 -863 -681 -1759 -1391 -90 -72 -255 -202 -366 -290 -111 -88 -339 -268 -505 -400 -167 -132 -309 -244 -316 -250 -11 -8 -9 -38 6 -155 10 -80 53 -406 95 -725 79 -601 81 -619 114 -875 11 -85 43 -330 71 -545 53 -407 65 -497 125 -965 20 -157 40 -288 43 -292 11 -11 1405 -638 1419 -638 3 0 1 25 -3 56 l-7 57 27 -7 27 -7 -7 71 c-5 49 -3 70 5 70 6 0 11 16 11 35 0 19 -4 35 -10 35 -5 0 -10 11 -10 24 0 23 4 25 53 28 50 3 52 4 50 32 -3 40 -12 44 -33 16 -15 -19 -20 -21 -20 -8 0 9 -3 24 -7 34 -5 15 -2 16 25 11 l32 -6 0 44 c0 41 2 45 25 45 20 0 25 5 25 24 0 13 7 26 15 30 8 3 15 12 15 20 0 10 14 16 43 20 23 3 69 8 102 13 101 12 176 10 360 -12 28 -4 61 -10 75 -15 14 -5 60 -11 103 -14 43 -3 87 -10 97 -16 10 -5 28 -10 38 -10 11 0 43 -12 71 -26 42 -22 53 -24 66 -14 8 7 15 8 15 3 0 -5 24 -20 53 -33 28 -13 54 -26 57 -29 3 -4 25 -15 50 -26 25 -11 50 -24 57 -30 7 -5 19 -16 27 -22 8 -7 28 -13 43 -13 29 0 69 -22 89 -49 6 -8 30 -15 55 -16 68 -3 149 -25 149 -41 0 -7 8 -18 18 -23 9 -6 14 -11 10 -11 -10 0 12 -60 22 -60 5 0 7 -25 4 -55 -4 -53 -4 -55 21 -55 23 0 25 -4 25 -44 0 -30 5 -46 15 -50 10 -4 15 -20 15 -51 0 -38 3 -45 19 -45 14 0 21 -8 23 -27 4 -32 90 -103 125 -103 12 0 32 -4 45 -9 13 -5 59 -14 104 -21 80 -12 150 -3 179 22 5 4 17 8 27 8 19 0 97 53 155 106 29 27 82 103 143 205 14 23 36 58 49 78 50 75 160 281 245 461 30 63 84 177 120 253 36 76 66 144 66 153 0 8 12 24 26 37 14 12 32 36 40 52 8 17 28 53 44 80 16 28 30 56 30 63 0 7 13 27 29 44 16 17 39 48 52 69 13 21 28 39 32 39 4 0 13 4 20 10 7 5 27 21 45 36 17 14 32 32 32 40 0 8 4 14 10 14 15 0 80 61 80 74 0 16 124 136 140 136 6 0 16 4 23 10 60 49 87 69 128 95 40 25 122 94 200 168 11 9 23 17 29 17 5 0 34 21 64 48 29 26 95 73 145 106 107 68 291 242 291 275 0 5 6 14 14 20 18 15 27 65 33 189 3 81 1 113 -13 150 -29 79 -126 202 -160 202 -8 0 -19 11 -25 24 -10 22 -17 24 -88 24 -99 1 -267 -18 -288 -33 -13 -10 6 -28 128 -119 79 -59 151 -112 159 -116 20 -12 9 -22 -100 -90 -72 -46 -546 -353 -1015 -658 -376 -245 -464 -305 -470 -320 -4 -9 -56 -147 -116 -307 -61 -159 -149 -391 -196 -515 -71 -188 -322 -854 -338 -898 -4 -10 -28 7 -76 50 -39 34 -126 113 -194 173 -67 61 -280 259 -472 440 -655 619 -693 652 -743 659 -47 7 -470 40 -1305 102 -275 20 -504 40 -508 44 -9 8 16 52 496 894 159 280 292 516 294 525 2 9 -52 165 -120 346 -284 756 -335 895 -437 1198 -96 284 -105 317 -88 317 11 0 124 -16 251 -35 128 -20 381 -58 562 -86 182 -28 445 -68 585 -90 140 -22 308 -47 372 -56 l118 -17 37 30 c70 56 955 745 1233 961 151 117 278 209 281 205 4 -4 48 -162 98 -352 200 -749 393 -1466 400 -1477 12 -22 710 -513 729 -513 7 0 6 15 -4 43 -9 23 -17 74 -19 114 -2 40 -9 81 -14 92 -6 11 -10 60 -8 114 3 92 -10 209 -26 235 -7 11 -1 12 27 7 40 -8 44 1 27 63 -8 28 -7 32 9 32 10 0 20 5 22 11 3 8 19 6 54 -7 59 -20 84 -15 84 20 0 19 4 23 20 19 13 -3 20 -14 20 -29 0 -15 6 -24 15 -24 8 0 15 -9 15 -20 0 -21 34 -45 50 -35 6 3 10 20 10 36 0 27 2 29 28 23 15 -4 29 -10 32 -13 3 -4 24 -13 48 -21 23 -7 42 -16 42 -20 0 -3 18 -5 40 -3 28 2 40 -1 40 -10 0 -8 19 -19 43 -26 23 -7 60 -19 82 -27 51 -18 65 -18 65 0 0 9 7 12 20 9 11 -3 20 -14 20 -24 0 -18 21 -26 166 -63 76 -20 84 -20 85 2 1 11 4 8 8 -8 5 -19 14 -25 36 -27 17 -1 55 -8 85 -16 30 -8 86 -18 124 -21 l68 -7 -6 63 c-3 35 -11 135 -16 223 -16 245 -29 423 -44 610 -8 94 -22 274 -31 400 -9 127 -20 236 -24 244 -6 13 -85 41 -1811 641 -536 186 -1164 404 -1395 485 -231 81 -449 157 -485 170 l-65 22 -55 -41z"/>
    <path d="M9880 3460 c-125 -19 -300 -68 -335 -94 -11 -9 -28 -16 -37 -16 -19 0 -81 -31 -86 -42 -2 -5 -9 -8 -15 -8 -19 0 -137 -61 -137 -71 0 -5 -8 -9 -19 -9 -10 0 -24 -7 -31 -15 -7 -8 -19 -15 -26 -15 -8 0 -14 -4 -14 -9 0 -5 -8 -11 -17 -15 -20 -6 -41 -19 -90 -53 -17 -13 -34 -23 -38 -23 -3 0 -30 -18 -60 -40 -30 -22 -58 -40 -63 -40 -5 0 -19 -11 -32 -25 -13 -14 -29 -25 -37 -25 -7 0 -13 -3 -13 -7 0 -5 -18 -19 -40 -33 -22 -13 -40 -28 -40 -32 0 -4 -6 -8 -14 -8 -8 0 -16 -7 -20 -15 -3 -8 -12 -15 -21 -15 -8 0 -15 -4 -15 -8 0 -4 -18 -19 -40 -32 -22 -14 -40 -28 -40 -32 0 -4 -12 -14 -27 -22 -16 -8 -41 -26 -58 -40 -16 -14 -35 -30 -42 -36 -7 -5 -15 -10 -18 -10 -3 0 -16 -10 -29 -22 -13 -13 -55 -45 -92 -73 -38 -27 -70 -53 -72 -57 -2 -4 -8 -8 -13 -8 -6 0 -20 -9 -32 -21 -12 -11 -47 -39 -77 -62 -30 -22 -59 -46 -65 -52 -5 -7 -29 -24 -53 -39 -24 -15 -45 -33 -49 -41 -3 -8 -9 -15 -15 -15 -9 0 -77 -47 -88 -61 -3 -4 -48 -38 -100 -77 -52 -39 -100 -76 -107 -81 -7 -6 -16 -11 -22 -11 -5 0 -11 -4 -13 -8 -1 -4 -23 -23 -48 -42 -25 -19 -47 -37 -50 -40 -3 -3 -21 -17 -40 -30 -19 -13 -41 -32 -48 -42 -7 -10 -18 -18 -24 -18 -6 0 -21 -11 -34 -25 -13 -14 -27 -25 -31 -25 -4 0 -25 -15 -45 -33 -21 -17 -70 -57 -109 -87 -39 -30 -79 -62 -88 -71 -9 -8 -43 -36 -76 -61 -33 -25 -70 -55 -82 -67 -12 -12 -26 -21 -32 -21 -5 0 -11 -7 -15 -15 -3 -8 -10 -15 -17 -15 -6 0 -23 -12 -38 -27 -15 -16 -49 -46 -75 -68 -78 -65 -104 -88 -146 -127 -22 -21 -42 -38 -45 -38 -7 0 -275 -267 -275 -274 0 -2 -16 -21 -35 -42 -19 -20 -35 -40 -35 -44 0 -4 -13 -23 -30 -41 -16 -19 -30 -42 -30 -51 0 -10 -4 -18 -10 -18 -5 0 -12 -11 -16 -25 -3 -14 -9 -25 -13 -25 -3 0 -15 -29 -25 -65 -20 -72 -19 -216 3 -223 6 -2 11 -9 12 -15 0 -7 13 -22 28 -34 l27 -22 100 70 c54 38 110 77 124 87 14 9 86 60 159 112 73 52 152 109 176 125 23 17 56 39 71 50 30 21 296 208 349 245 17 12 62 44 100 71 39 28 79 57 90 64 19 13 82 58 361 255 59 41 125 88 147 103 22 16 155 110 296 210 373 263 372 263 421 297 52 36 338 239 390 276 39 27 413 291 447 314 11 8 117 83 233 165 117 83 245 173 284 200 320 222 355 249 349 275 -7 33 -42 110 -57 126 -47 54 -58 61 -123 83 -72 24 -151 31 -223 21z"/>
    <path d="M4165 1092 c-2 -3 -46 -6 -97 -8 -51 -1 -100 -3 -108 -4 -8 -1 -27 -2 -42 -1 -58 2 -78 1 -78 -7 0 -9 -32 6 510 -237 107 -48 213 -95 235 -105 22 -10 87 -39 145 -65 58 -26 124 -55 146 -66 23 -10 106 -47 185 -83 173 -76 518 -231 574 -256 297 -134 301 -135 291 -102 -2 9 -7 42 -11 72 -11 97 -66 402 -74 419 -22 40 -151 125 -281 186 -19 9 -56 27 -81 41 -26 13 -59 24 -74 24 -14 0 -36 5 -48 12 -12 7 -56 20 -97 29 -41 9 -93 22 -115 28 -22 6 -56 11 -75 11 -19 0 -53 7 -75 15 -22 8 -68 14 -102 15 -35 0 -63 4 -63 9 0 5 -17 11 -37 14 -21 3 -63 11 -93 17 -30 6 -75 12 -100 13 -25 2 -49 5 -55 9 -17 10 -371 29 -380 20z"/>
    </g>
</svg>