<svg xmlns="http://www.w3.org/2000/svg" viewBox="0 0 1080.000000 1080.000000">
<g fill="#dda616" xmlns="http://www.w3.org/2000/svg" transform="translate(0.000000,1080.000000) scale(0.100000,-0.100000)">
<path d="M9615 9808 c-38 -22 -214 -121 -390 -221 -373 -210 -1469 -828 -1535
-865 l-46 -25 32 -236 c18 -130 46 -342 64 -471 54 -403 182 -1383 270 -2075
40 -314 93 -724 106 -817 6 -39 10 -47 33 -53 48 -12 120 -47 125 -61 5 -13
-9 -123 -17 -131 -2 -2 -47 2 -99 8 -56 7 -101 8 -109 3 -27 -16 -782 -586
-874 -659 -454 -361 -1684 -1292 -1859 -1407 -49 -32 -94 -57 -100 -55 -6 2
-12 13 -14 25 -2 12 -7 22 -12 22 -5 0 -10 7 -12 16 -2 12 -53 -21 -193 -126
-271 -204 -285 -216 -285 -251 0 -29 -15 -52 -59 -96 -22 -22 -25 -22 -37 -5
-7 9 -14 24 -14 32 -1 9 -68 47 -173 98 -95 45 -489 238 -877 428 -388 191
-777 381 -865 424 -88 42 -367 177 -620 300 -293 142 -464 219 -471 214 -7 -5
-139 -160 -295 -344 -156 -184 -393 -465 -528 -625 -135 -159 -282 -333 -327
-386 l-83 -96 197 -96 c108 -53 328 -160 487 -237 160 -78 445 -218 635 -310
190 -92 497 -243 684 -334 186 -91 339 -166 341 -166 2 0 164 -79 361 -176
198 -97 431 -211 519 -254 88 -43 234 -114 325 -158 91 -44 309 -150 485 -237
469 -230 506 -247 551 -253 23 -2 50 1 61 7 21 10 91 63 475 354 228 173 514
389 883 668 263 199 663 502 953 722 96 73 186 141 202 152 16 11 100 74 187
141 87 66 262 198 388 294 127 95 311 235 410 310 267 203 576 437 880 666
149 112 416 315 595 450 179 135 355 269 393 297 76 57 75 52 53 191 -8 50
-20 134 -26 186 -6 52 -18 140 -25 195 -15 110 -28 205 -80 615 -36 280 -58
450 -76 575 -6 39 -14 104 -19 145 -5 41 -23 179 -40 305 -16 127 -37 286 -45
355 -8 69 -22 170 -30 225 -8 55 -19 137 -25 183 -5 45 -14 117 -20 160 -17
137 -70 534 -86 642 -8 58 -28 211 -44 340 -16 129 -43 339 -60 465 -16 127
-37 286 -46 355 -8 69 -28 217 -44 330 -16 113 -31 236 -35 274 -7 73 -13 96
-24 95 -3 0 -37 -18 -76 -41z"/>
<path d="M5085 7645 c-341 -222 -629 -404 -639 -405 -18 0 -328 74 -981 236
-187 46 -301 70 -305 63 -4 -5 3 -69 16 -142 209 -1253 208 -1249 193 -1272
-8 -12 -171 -230 -362 -484 -191 -254 -350 -468 -353 -476 -6 -15 12 -21 142
-50 44 -10 212 -51 374 -91 162 -40 392 -96 510 -123 118 -28 224 -55 236 -60
12 -5 75 -83 141 -173 65 -89 269 -369 453 -621 183 -251 338 -456 344 -454
11 4 57 87 463 837 130 239 246 451 259 471 18 29 45 48 136 91 392 190 1026
496 1151 556 82 40 147 76 145 81 -1 5 -136 128 -299 273 -420 374 -655 583
-723 646 l-59 54 -63 487 c-134 1042 -122 961 -143 960 -9 0 -295 -182 -636
-404z"/>
</g>
</svg>