<svg width="900" height="450" xmlns="http://www.w3.org/2000/svg"><path fill="#10101a" d="M0 0h900v450H0z"/><path d="M0 395l15 .3c15 .4 45 1 75 2.7 30 1.7 60 4.3 90 6.5s60 3.8 90 .7c30-3.2 60-11.2 90-14.2s60-1 90 2.5 60 8.5 90 9.2c30 .6 60-3 90-5.9 30-2.8 60-4.8 90-3.8s60 5 90 6.3c30 1.4 60 0 75-.6l15-.7v53H0z" fill="#919191"/><path d="M0 406l15 1.8c15 1.9 45 5.5 75 8.5s60 5.4 90 2.5c30-2.8 60-10.8 90-12.8s60 2 90 5 60 5 90 3.5 60-6.5 90-9.5 60-4 90-4.3c30-.4 60 0 90 3.6 30 3.7 60 10.7 90 11.5 30 .9 60-4.5 75-7.1l15-2.7v45H0z" fill="#c7c7c7"/><path d="M0 427l15-.8c15-.9 45-2.5 75-3.2 30-.7 60-.3 90 .3 30 .7 60 1.7 90 2 30 .4 60 0 90 .2s60 .8 90 2.3c30 1.5 60 3.9 90 4.2 30 .3 60-1.3 90-2.3 30-1 60-1.4 90-2.2 30-.8 60-2.2 90-2.5 30-.3 60 .3 75 .7l15 .3v25H0z" fill="#fff"/></svg>