<svg viewBox="0 0 38 38" xmlns="http://www.w3.org/2000/svg" xmlns:xlink="http://www.w3.org/1999/xlink"><style>:root&gt;svg{display:none}:root&gt;svg:target{display:block}</style><svg fill="none" viewBox="0 0 26 26" id="css--facebook" xmlns="http://www.w3.org/2000/svg"><path fill="#09B3B0" d="M0 0h26v26H0z"/><path d="M22.344 2.844H3.656a.812.812 0 00-.812.812v18.688c0 .45.363.812.812.812h18.688a.81.81 0 00.812-.812V3.656a.812.812 0 00-.812-.812zm-2.346 5.928h-1.623c-1.272 0-1.518.605-1.518 1.493v1.958h3.037l-.396 3.065h-2.641v7.868H13.69V15.29h-2.649v-3.067h2.649v-2.26c0-2.623 1.602-4.052 3.943-4.052 1.122 0 2.084.084 2.366.122v2.74h-.002z" fill="#F8F8F8"/></svg><svg fill="none" viewBox="0 0 26 26" id="css--github" xmlns="http://www.w3.org/2000/svg"><g clip-path="url(#bclip0_1:153)"><path fill="#09B3B0" d="M0 0h26v26H0z"/><path d="M21.968-.02c-.676-.01-2.246.215-4.867 1.939a18.867 18.867 0 00-4.47-.524c-1.676 0-3.369.209-4.947.634C3.92-.493 2.26.024 2.26.024 1.175 2.688 1.845 4.66 2.05 5.15.774 6.5-.004 8.226-.004 10.34c0 1.597.185 3.03.636 4.274.026.096.017.075.06.157a7.677 7.677 0 00.416.9c1.27 2.327 3.774 3.83 8.23 4.301l6.74.008c4.751-.463 7.031-1.97 8.082-4.312l.067-.153c.1-.236.186-.482.424-1.311.237-.829.343-2.264.343-3.864 0-2.295-.877-4.131-2.302-5.528.249-.79.581-2.544-.333-4.788 0 0-.128-.04-.392-.044zm-5.31 8.422c1.096-.002 2.036.183 2.742.91.883.912 1.4 2.011 1.4 3.196 0 5.534-3.623 5.684-8.091 5.684-4.47 0-8.091-.767-8.091-5.684 0-1.177.509-2.27 1.38-3.177 1.456-1.512 3.917-.711 6.71-.711 1.434 0 2.781-.215 3.95-.218zm-8.324 1.63c-.93 0-1.684 1.234-1.684 2.758s.754 2.76 1.684 2.76c.93 0 1.683-1.236 1.683-2.76 0-1.523-.753-2.757-1.683-2.758zm9.033 0c-.93 0-1.684 1.234-1.684 2.758s.754 2.76 1.684 2.76c.93 0 1.683-1.236 1.683-2.76 0-1.523-.754-2.757-1.683-2.758z" fill="#F8F8F8"/></g><defs><clipPath id="bclip0_1:153"><path fill="#fff" d="M0 0h26v26H0z"/></clipPath></defs></svg><svg fill="none" viewBox="0 0 26 26" id="css--instagram" xmlns="http://www.w3.org/2000/svg"><path fill="#09B3B0" d="M0 0h26v26H0z"/><path fill-rule="evenodd" clip-rule="evenodd" d="M8.398 1.155c1.32-.059 1.74-.072 5.102-.072 3.361 0 3.782.014 5.1.072 1.32.057 2.22.26 3.007.553.824.3 1.573.77 2.191 1.376a5.804 5.804 0 011.427 2.11c.306.758.515 1.625.576 2.892.06 1.273.074 1.678.074 4.914 0 3.237-.015 3.642-.074 4.913-.06 1.267-.27 2.134-.576 2.892a5.83 5.83 0 01-1.427 2.112 6.097 6.097 0 01-2.191 1.373c-.788.295-1.688.497-3.004.555-1.32.059-1.742.072-5.103.072-3.361 0-3.782-.014-5.102-.072-1.316-.057-2.216-.26-3.004-.554a6.1 6.1 0 01-2.192-1.374 5.825 5.825 0 01-1.428-2.11c-.305-.759-.514-1.625-.575-2.893-.06-1.273-.074-1.678-.074-4.914 0-3.237.015-3.642.074-4.912.06-1.27.27-2.136.575-2.894a5.83 5.83 0 011.429-2.11 6.093 6.093 0 012.19-1.376c.788-.293 1.688-.495 3.004-.553h.001zM18.501 3.3c-1.305-.058-1.697-.07-5.001-.07-3.304 0-3.696.012-5 .07-1.208.053-1.862.247-2.299.41a3.86 3.86 0 00-1.423.891c-.41.385-.727.853-.925 1.37-.17.42-.371 1.051-.426 2.214-.06 1.256-.072 1.633-.072 4.815 0 3.182.012 3.559.072 4.816.055 1.162.256 1.792.426 2.213.198.517.514.986.925 1.37.4.395.886.7 1.423.89.437.164 1.091.358 2.298.411 1.305.058 1.696.07 5.001.07 3.305 0 3.696-.012 5-.07 1.208-.053 1.863-.247 2.299-.41a3.86 3.86 0 001.423-.89 3.7 3.7 0 00.925-1.371c.17-.42.371-1.051.426-2.213.06-1.257.072-1.634.072-4.816s-.012-3.559-.072-4.815c-.055-1.163-.256-1.793-.426-2.214a3.69 3.69 0 00-.925-1.37c-.4-.395-.886-.7-1.423-.89-.436-.164-1.091-.358-2.298-.411zm-6.582 13.374a4.276 4.276 0 002.781.135 4.12 4.12 0 002.238-1.597c.53-.765.77-1.684.675-2.6a3.916 3.916 0 00-1.194-2.423 4.153 4.153 0 00-1.528-.932 4.277 4.277 0 00-3.513.334 4.066 4.066 0 00-1.31 1.201 3.89 3.89 0 00-.651 1.625 3.835 3.835 0 00.133 1.737c.177.563.481 1.08.89 1.516.41.436.916.778 1.48 1.004zM9.002 8.669a6.382 6.382 0 012.064-1.328 6.573 6.573 0 014.868 0 6.383 6.383 0 012.064 1.328 6.115 6.115 0 011.379 1.987 5.929 5.929 0 010 4.688 6.116 6.116 0 01-1.38 1.987 6.487 6.487 0 01-4.497 1.794 6.487 6.487 0 01-4.498-1.794A6.012 6.012 0 017.14 13c0-1.624.67-3.182 1.863-4.331zm12.27-.882c.146-.133.263-.293.344-.47a1.404 1.404 0 00-.313-1.608 1.51 1.51 0 00-.498-.318 1.555 1.555 0 00-1.171.017c-.185.078-.35.19-.489.332a1.42 1.42 0 00-.41 1.015c.006.376.164.736.44 1.003a1.54 1.54 0 001.043.424c.39.005.769-.136 1.053-.395z" fill="#F8F8F8"/></svg><svg fill="none" viewBox="0 0 20 20" id="css--message" xmlns="http://www.w3.org/2000/svg"><path d="M18 0H2C.9 0 .01.9.01 2L0 20l4-4h14c1.1 0 2-.9 2-2V2c0-1.1-.9-2-2-2zM4 7h12v2H4V7zm8 5H4v-2h8v2zm4-6H4V4h12v2z" fill="#fff"/></svg><svg fill="none" viewBox="0 0 18 18" id="css--phone" xmlns="http://www.w3.org/2000/svg"><path d="M3.62 7.79c1.44 2.83 3.76 5.14 6.59 6.59l2.2-2.2c.27-.27.67-.36 1.02-.24 1.12.37 2.33.57 3.57.57.55 0 1 .45 1 1V17c0 .55-.45 1-1 1C7.61 18 0 10.39 0 1c0-.55.45-1 1-1h3.5c.55 0 1 .45 1 1 0 1.25.2 2.45.57 3.57.11.35.03.74-.25 1.02l-2.2 2.2z" fill="#fff"/></svg><svg fill="none" viewBox="0 0 26 26" id="css--pinterest" xmlns="http://www.w3.org/2000/svg"><path fill="#09B3B0" d="M0 0h26v26H0z"/><path d="M0 13c0 5.55 3.479 10.288 8.374 12.153-.119-1.015-.246-2.689.027-3.863.235-1.01 1.518-6.433 1.518-6.433s-.387-.775-.387-1.922c0-1.798 1.042-3.142 2.341-3.142 1.105 0 1.638.83 1.638 1.823 0 1.11-.707 2.77-1.072 4.309-.305 1.288.647 2.339 1.916 2.339 2.3 0 4.07-2.426 4.07-5.927 0-3.1-2.228-5.265-5.408-5.265-3.68 0-5.842 2.761-5.842 5.616 0 1.113.428 2.304.963 2.953a.39.39 0 01.09.372c-.099.41-.317 1.288-.36 1.468-.057.236-.187.287-.433.172-1.616-.752-2.626-3.115-2.626-5.013 0-4.083 2.965-7.831 8.55-7.831 4.489 0 7.978 3.199 7.978 7.474 0 4.46-2.81 8.05-6.715 8.05-1.312 0-2.544-.682-2.966-1.487 0 0-.65 2.472-.806 3.076-.306 1.175-1.153 2.661-1.678 3.505C10.381 25.8 11.666 26 13 26c7.18 0 13-5.82 13-13S20.18 0 13 0 0 5.82 0 13z" fill="#F8F8F8"/></svg><svg fill="none" viewBox="0 0 38 38" id="css--search" xmlns="http://www.w3.org/2000/svg"><path d="M16.667 29.333c2.81 0 5.54-.941 7.753-2.672l6.96 6.96 2.24-2.239-6.96-6.96a12.59 12.59 0 002.673-7.755C29.333 9.683 23.651 4 16.667 4S4 9.683 4 16.667s5.683 12.666 12.667 12.666zm0-22.166c5.239 0 9.5 4.26 9.5 9.5 0 5.239-4.261 9.5-9.5 9.5-5.24 0-9.5-4.261-9.5-9.5 0-5.24 4.26-9.5 9.5-9.5z" fill="#fff"/><path d="M18.069 13.595c.6.601.931 1.396.931 2.238h3.167a6.297 6.297 0 00-1.86-4.477c-2.396-2.394-6.553-2.394-8.948 0l2.236 2.242c1.203-1.2 3.277-1.197 4.474-.004z" fill="#fff"/></svg><svg fill="none" viewBox="0 0 26 26" id="css--twitter" xmlns="http://www.w3.org/2000/svg"><path fill="#09B3B0" d="M0 0h26v26H0z"/><path d="M26.598 5.348a10.82 10.82 0 01-3.009.795 5.097 5.097 0 002.304-2.793 10.71 10.71 0 01-3.328 1.224 5.307 5.307 0 00-2.974-1.53 5.418 5.418 0 00-3.327.53 5.13 5.13 0 00-2.303 2.372 4.877 4.877 0 00-.326 3.232 15.333 15.333 0 01-5.983-1.53 14.793 14.793 0 01-4.82-3.744 4.902 4.902 0 00-.09 4.92 5.122 5.122 0 001.713 1.819 5.383 5.383 0 01-2.374-.632v.065c0 1.165.419 2.295 1.185 3.197a5.282 5.282 0 003.02 1.752 5.476 5.476 0 01-2.368.086 5.06 5.06 0 001.865 2.508 5.376 5.376 0 003.031.996 10.777 10.777 0 01-6.509 2.161 11.1 11.1 0 01-1.25-.07 15.241 15.241 0 008.032 2.267c9.64 0 14.912-7.69 14.912-14.358 0-.217-.006-.436-.016-.652a10.443 10.443 0 002.613-2.611l.002-.004z" fill="#F8F8F8"/></svg><svg fill="none" viewBox="0 0 26 26" id="css--youtube" xmlns="http://www.w3.org/2000/svg"><g clip-path="url(#iclip0_1:138)"><path fill="#09B3B0" d="M0 0h26v26H0z"/><path d="M25.458 7.05a3.019 3.019 0 00-.83-1.377 3.304 3.304 0 00-1.449-.803c-2.034-.537-10.185-.537-10.185-.537a83.009 83.009 0 00-10.173.51 3.423 3.423 0 00-1.45.823c-.4.386-.69.861-.842 1.382A31.514 31.514 0 000 13a31.458 31.458 0 00.529 5.952c.148.519.437.992.84 1.375.401.382.902.658 1.452.804 2.062.536 10.172.536 10.172.536a83.191 83.191 0 0010.186-.51 3.303 3.303 0 001.45-.803c.4-.383.685-.858.828-1.376.374-1.962.556-3.956.543-5.953a28.791 28.791 0 00-.542-5.977v.001zm-15.056 9.66V9.291l6.782 3.71-6.782 3.707z" fill="#F8F8F8"/></g><defs><clipPath id="iclip0_1:138"><path fill="#fff" d="M0 0h26v26H0z"/></clipPath></defs></svg></svg>